<svg data-v-423bf9ae="" xmlns="http://www.w3.org/2000/svg" viewBox="0 0 476 90" class="iconLeft"><!----><!----><!----><g data-v-423bf9ae="" id="7b2c4df1-2ce1-4bb4-abb9-a5708c44a0c8" fill="white" transform="matrix(4.460966289706529,0,0,4.460966289706529,108.61710645659582,-0.6133801066242199)"><path d="M12.42 3.78L10.18 12.53L7.53 3.78L6.50 3.78L3.75 12.45L1.46 3.78L0.31 3.78L3.21 14L4.26 14L7.03 5.26L9.65 14L10.72 14L13.50 3.78ZM17.77 6.58C15.72 6.58 14.14 8.19 14.14 10.33C14.14 12.50 15.68 14.14 17.78 14.14C19.45 14.14 20.71 13.06 20.94 11.76L19.95 11.76C19.74 12.66 18.89 13.23 17.78 13.23C16.34 13.23 15.27 12.15 15.16 10.63L20.99 10.63L21.08 10.54C21.27 8.41 19.78 6.58 17.77 6.58ZM15.20 9.74C15.46 8.39 16.52 7.48 17.75 7.48C19.04 7.48 19.94 8.48 20.08 9.76ZM26.04 11.14C26.54 13.01 28.01 14.14 30.03 14.14C31.93 14.14 33.49 13.02 33.49 11.37C33.49 7.80 27.72 9.07 27.72 6.24C27.72 5.28 28.62 4.62 29.92 4.62C31.14 4.62 32.02 5.33 32.37 6.51L33.45 6.51C33.07 4.80 31.79 3.64 29.92 3.64C27.99 3.64 26.63 4.72 26.63 6.24C26.63 10.05 32.38 8.69 32.38 11.40C32.38 12.40 31.39 13.16 30.03 13.16C28.69 13.16 27.58 12.49 27.15 11.14ZM38.54 6.58C36.50 6.58 34.92 8.19 34.92 10.33C34.92 12.50 36.46 14.14 38.56 14.14C40.22 14.14 41.48 13.06 41.72 11.76L40.73 11.76C40.52 12.66 39.66 13.23 38.56 13.23C37.11 13.23 36.05 12.15 35.94 10.63L41.76 10.63L41.86 10.54C42.04 8.41 40.56 6.58 38.54 6.58ZM35.98 9.74C36.23 8.39 37.30 7.48 38.53 7.48C39.82 7.48 40.71 8.48 40.85 9.76ZM49.31 9.30L50.32 9.30C50.20 7.94 48.89 6.58 46.96 6.58C44.80 6.58 43.23 8.20 43.23 10.33C43.23 12.47 44.80 14.14 46.98 14.14C48.72 14.14 50.13 13.03 50.29 11.54L49.28 11.54C49.10 12.57 48.16 13.23 46.96 13.23C45.50 13.23 44.30 12.07 44.30 10.36C44.30 8.69 45.46 7.49 46.98 7.49C48.30 7.49 49.21 8.44 49.31 9.30ZM57.51 6.72L57.51 12.18C56.57 12.82 55.62 13.22 54.80 13.22C53.70 13.22 53.10 12.60 53.10 11.42L53.10 6.72L52.05 6.72L52.05 11.47C52.05 13.22 52.99 14.14 54.53 14.14C55.61 14.14 56.56 13.78 57.64 13.06L57.82 14L58.56 14L58.56 6.72ZM64.48 6.58C63.71 6.58 62.85 6.97 61.91 7.76L61.73 6.72L60.98 6.72L60.98 14L62.02 14L62.02 8.75C62.93 7.98 63.67 7.59 64.29 7.59C64.61 7.59 64.89 7.64 65.13 7.73L65.25 6.71C65.04 6.64 64.79 6.58 64.48 6.58ZM67.26 5.10C67.69 5.10 68.05 4.73 68.05 4.27C68.05 3.85 67.69 3.50 67.26 3.50C66.81 3.50 66.46 3.85 66.46 4.27C66.46 4.73 66.81 5.10 67.26 5.10ZM67.75 6.72L66.70 6.72L66.70 14L67.75 14ZM69.34 7.62L70.48 7.62L70.48 12.00C70.48 13.57 71.34 14.14 72.46 14.14C73.21 14.14 73.91 13.99 74.48 13.73L74.37 12.84C73.85 13.06 73.26 13.22 72.62 13.22C71.93 13.22 71.51 12.85 71.51 11.98L71.51 7.62L74.44 7.62L74.44 6.72L71.51 6.72L71.51 4.65L70.50 4.91L70.50 6.72L69.34 6.72ZM81.10 6.72L78.65 13.15L76.15 6.72L74.98 6.72L78.01 14L78.30 14L78.05 14.62C77.66 15.55 77.25 16.11 76.36 16.11C75.95 16.11 75.56 16.03 75.21 15.92L75.07 16.73C75.46 16.88 75.94 16.95 76.30 16.95C77.71 16.95 78.34 16.14 78.90 14.81L82.24 6.72Z"></path></g><!----><g data-v-423bf9ae="" id="c95c74d2-476d-42be-8cb5-3b2ae6fd312e" transform="matrix(2.8125,0,0,2.8125,0,0)" stroke="none" fill="white"><circle cx="16" cy="16.021" r="8.066"></circle><path d="M32 0H0v32h32V0zM16 26.086c-5.551 0-10.066-4.516-10.066-10.065 0-5.55 4.516-10.066 10.066-10.066 5.55 0 10.065 4.516 10.065 10.066.001 5.55-4.515 10.065-10.065 10.065z"></path></g><!----></svg>